<svg width="82" height="82" viewBox="0 0 82 82" fill="none" xmlns="http://www.w3.org/2000/svg">
<mask id="mask0_136_1406" style="mask-type:alpha" maskUnits="userSpaceOnUse" x="0" y="0" width="82" height="82">
<rect width="82" height="82" fill="#D9D9D9"/>
</mask>
<g mask="url(#mask0_136_1406)">
<path d="M36.0713 57.6822L60.8831 32.8704L54.7961 26.7352L36.0713 45.46L26.9132 36.3019L20.8264 42.4371L36.0713 57.6822ZM40.9995 76.8081C36.0157 76.8081 31.3489 75.8696 26.9992 73.9927C22.6495 72.1158 18.8659 69.5686 15.6484 66.351C12.4308 63.1335 9.88357 59.3499 8.00668 55.0002C6.12979 50.6505 5.19135 45.9837 5.19135 40.9999C5.19135 36.016 6.12979 31.3492 8.00668 26.9995C9.88357 22.6498 12.4308 18.8662 15.6484 15.6487C18.8659 12.4311 22.6495 9.88387 26.9992 8.00698C31.3489 6.1301 36.0157 5.19165 40.9995 5.19165C45.9834 5.19165 50.6502 6.1301 54.9999 8.00698C59.3496 9.88387 63.1332 12.4311 66.3507 15.6487C69.5683 18.8662 72.1155 22.6498 73.9924 26.9995C75.8693 31.3492 76.8078 36.016 76.8078 40.9999C76.8078 45.9837 75.8693 50.6505 73.9924 55.0002C72.1155 59.3499 69.5683 63.1335 66.3507 66.351C63.1332 69.5686 59.3496 72.1158 54.9999 73.9927C50.6502 75.8696 45.9834 76.8081 40.9995 76.8081ZM40.9995 67.7538C48.5014 67.7538 54.8358 65.1703 60.0029 60.0032C65.17 54.8361 67.7535 48.5017 67.7535 40.9999C67.7535 33.4981 65.17 27.1636 60.0029 21.9965C54.8358 16.8294 48.5014 14.2459 40.9995 14.2459C33.4977 14.2459 27.1633 16.8294 21.9962 21.9965C16.8291 27.1636 14.2456 33.4981 14.2456 40.9999C14.2456 48.5017 16.8291 54.8361 21.9962 60.0032C27.1633 65.1703 33.4977 67.7538 40.9995 67.7538Z" fill="#40AC0E"/>
</g>
</svg>
