<svg width="23" height="22" viewBox="0 0 23 22" fill="none" xmlns="http://www.w3.org/2000/svg">
<mask id="mask0_173_702" style="mask-type:alpha" maskUnits="userSpaceOnUse" x="0" y="0" width="23" height="22">
<rect x="0.951904" width="21.3672" height="21.3672" fill="#D9D9D9"/>
</mask>
<g mask="url(#mask0_173_702)">
<path d="M7.62923 9.79325C6.76861 9.79325 6.03411 9.48907 5.42574 8.8807C4.81737 8.27233 4.51318 7.53783 4.51318 6.67721C4.51318 5.81658 4.81737 5.08209 5.42574 4.47371C6.03411 3.86534 6.76861 3.56116 7.62923 3.56116C8.48986 3.56116 9.22435 3.86534 9.83272 4.47371C10.4411 5.08209 10.7453 5.81658 10.7453 6.67721C10.7453 7.53783 10.4411 8.27233 9.83272 8.8807C9.22435 9.48907 8.48986 9.79325 7.62923 9.79325ZM7.62923 8.01266C8.00019 8.01266 8.3155 7.88282 8.57518 7.62315C8.83485 7.36348 8.96468 7.04816 8.96468 6.67721C8.96468 6.30625 8.83485 5.99093 8.57518 5.73126C8.3155 5.47159 8.00019 5.34176 7.62923 5.34176C7.25827 5.34176 6.94296 5.47159 6.68329 5.73126C6.42362 5.99093 6.29378 6.30625 6.29378 6.67721C6.29378 7.04816 6.42362 7.36348 6.68329 7.62315C6.94296 7.88282 7.25827 8.01266 7.62923 8.01266ZM15.6419 17.806C14.7813 17.806 14.0468 17.5018 13.4384 16.8934C12.8301 16.285 12.5259 15.5505 12.5259 14.6899C12.5259 13.8293 12.8301 13.0948 13.4384 12.4864C14.0468 11.878 14.7813 11.5739 15.6419 11.5739C16.5026 11.5739 17.237 11.878 17.8454 12.4864C18.4538 13.0948 18.758 13.8293 18.758 14.6899C18.758 15.5505 18.4538 16.285 17.8454 16.8934C17.237 17.5018 16.5026 17.806 15.6419 17.806ZM15.6419 16.0254C16.0129 16.0254 16.3282 15.8955 16.5879 15.6358C16.8475 15.3762 16.9774 15.0609 16.9774 14.6899C16.9774 14.3189 16.8475 14.0036 16.5879 13.744C16.3282 13.4843 16.0129 13.3545 15.6419 13.3545C15.271 13.3545 14.9557 13.4843 14.696 13.744C14.4363 14.0036 14.3065 14.3189 14.3065 14.6899C14.3065 15.0609 14.4363 15.3762 14.696 15.6358C14.9557 15.8955 15.271 16.0254 15.6419 16.0254ZM5.7596 17.806L4.51318 16.5595L17.5116 3.56116L18.758 4.80758L5.7596 17.806Z" fill="#1C1B1F"/>
</g>
</svg>
